<svg width="40" height="40" viewBox="0 0 40 40" fill="none" xmlns="http://www.w3.org/2000/svg">
<path d="M32.495 13.315L20 25.495L7.50501 13.315C7.28176 13.0969 6.98208 12.9749 6.67001 12.9749C6.35794 12.9749 6.05825 13.0969 5.83501 13.315C5.72691 13.4209 5.64104 13.5473 5.58241 13.6868C5.52379 13.8263 5.49359 13.9762 5.49359 14.1275C5.49359 14.2788 5.52379 14.4286 5.58241 14.5681C5.64104 14.7077 5.72691 14.8341 5.83501 14.94L19.1275 27.9C19.3609 28.1275 19.674 28.2549 20 28.2549C20.326 28.2549 20.6391 28.1275 20.8725 27.9L34.165 14.9425C34.2739 14.8365 34.3604 14.7098 34.4195 14.5698C34.4786 14.4298 34.509 14.2794 34.509 14.1275C34.509 13.9755 34.4786 13.8252 34.4195 13.6852C34.3604 13.5452 34.2739 13.4185 34.165 13.3125C33.9418 13.0944 33.6421 12.9724 33.33 12.9724C33.0179 12.9724 32.7183 13.0944 32.495 13.3125V13.315Z" fill="black"/>
</svg>
