<svg width="34" height="34" viewBox="0 0 34 34" fill="none" xmlns="http://www.w3.org/2000/svg">
<path d="M18.9522 19.1766V24.0145C18.9521 24.1116 18.9711 24.2078 19.0082 24.2975C19.0453 24.3872 19.0997 24.4687 19.1683 24.5374C19.2369 24.6061 19.3184 24.6606 19.4081 24.6977C19.4977 24.7349 19.5939 24.754 19.691 24.754H23.0307C23.1279 24.7541 23.2241 24.7351 23.3138 24.6979C23.4036 24.6608 23.4852 24.6063 23.5539 24.5376C23.6225 24.469 23.677 24.3874 23.7141 24.2976C23.7513 24.2079 23.7703 24.1117 23.7702 24.0145V17.9831H24.7392C24.9669 17.983 25.189 17.9131 25.3757 17.7828C25.5623 17.6525 25.7045 17.4681 25.7831 17.2545C25.8617 17.0409 25.8729 16.8083 25.8152 16.5881C25.7575 16.3679 25.6336 16.1707 25.4603 16.0231L17.8826 9.5702C17.6363 9.36051 17.3234 9.24536 17 9.24536C16.6766 9.24536 16.3637 9.36051 16.1174 9.5702L8.53966 16.0231C8.36597 16.1705 8.24174 16.3677 8.18378 16.588C8.12582 16.8084 8.13692 17.0412 8.21558 17.255C8.29424 17.4688 8.43667 17.6533 8.62359 17.7835C8.81052 17.9137 9.03293 17.9834 9.26075 17.9831H10.2297V24.0152C10.2299 24.2112 10.3079 24.3992 10.4466 24.5377C10.5853 24.6762 10.7732 24.754 10.9692 24.754H14.3083C14.5043 24.754 14.6922 24.6762 14.8307 24.5376C14.9693 24.3991 15.0471 24.2112 15.0471 24.0152V19.1773L18.9522 19.1766Z" stroke="black" stroke-width="2" stroke-linecap="round" stroke-linejoin="round"/>
</svg>
