<svg width="34" height="34" viewBox="0 0 34 34" fill="none" xmlns="http://www.w3.org/2000/svg">
<path fill-rule="evenodd" clip-rule="evenodd" d="M11.9225 10.9225C11.3546 11.4829 10.903 12.1502 10.594 12.8858C10.285 13.6214 10.1245 14.4109 10.1218 15.2088C10.1191 16.0067 10.2743 16.7973 10.5784 17.5349C10.8825 18.2726 11.3296 18.9429 11.8938 19.5071C12.458 20.0713 13.1282 20.5183 13.8659 20.8224C14.6036 21.1265 15.3941 21.2817 16.192 21.279C16.9899 21.2764 17.7794 21.1159 18.5151 20.8068C19.2507 20.4978 19.9179 20.0463 20.4783 19.4783C21.6004 18.3411 22.2271 16.8063 22.2217 15.2088C22.2164 13.6113 21.5794 12.0807 20.4498 10.9511C19.3201 9.82145 17.7896 9.18446 16.192 9.17911C14.5945 9.17376 13.0597 9.80048 11.9225 10.9225V10.9225ZM18.9229 17.9229C18.2009 18.645 17.2216 19.0506 16.2004 19.0506C15.1793 19.0506 14.2 18.645 13.4779 17.9229C12.7559 17.2009 12.3502 16.2215 12.3502 15.2004C12.3502 14.1793 12.7559 13.2 13.4779 12.4779C14.2 11.7559 15.1793 11.3502 16.2004 11.3502C17.2216 11.3502 18.2009 11.7559 18.9229 12.4779C19.645 13.2 20.0506 14.1793 20.0506 15.2004C20.0506 16.2215 19.645 17.2009 18.9229 17.9229V17.9229Z" fill="black"/>
<path d="M19.3112 20.6454C19.158 20.4921 19.0364 20.3102 18.9535 20.1099C18.8705 19.9097 18.8278 19.695 18.8278 19.4783C18.8278 19.2615 18.8705 19.0469 18.9535 18.8467C19.0364 18.6464 19.158 18.4645 19.3112 18.3112C19.4645 18.1579 19.6465 18.0363 19.8467 17.9534C20.047 17.8705 20.2616 17.8278 20.4783 17.8278C20.6951 17.8278 20.9097 17.8705 21.11 17.9534C21.3102 18.0363 21.4922 18.1579 21.6454 18.3112L25.534 22.2008C25.6915 22.353 25.8172 22.5351 25.9037 22.7364C25.9902 22.9377 26.0357 23.1542 26.0376 23.3733C26.0395 23.5924 25.9978 23.8096 25.9148 24.0124C25.8318 24.2152 25.7093 24.3994 25.5544 24.5543C25.3995 24.7093 25.2153 24.8318 25.0125 24.9147C24.8097 24.9977 24.5924 25.0395 24.3733 25.0376C24.1543 25.0356 23.9377 24.9901 23.7364 24.9037C23.5351 24.8172 23.3531 24.6915 23.2008 24.5339L19.3112 20.6454Z" fill="black"/>
</svg>
