<svg width="204" height="44" viewBox="0 0 204 44" fill="none" xmlns="http://www.w3.org/2000/svg">
<path d="M5.1628 9.8H10.9948V30.248H23.6308V35H5.1628V9.8ZM46.4014 30.32V35H26.8894V9.8H45.9334V14.48H32.6854V19.952H44.3854V24.488H32.6854V30.32H46.4014ZM56.2617 14.552H48.1977V9.8H70.1577V14.552H62.0937V35H56.2617V14.552ZM81.3998 35.432C79.4078 35.432 77.4758 35.168 75.6038 34.64C73.7558 34.088 72.2678 33.38 71.1398 32.516L73.1198 28.124C74.1998 28.916 75.4838 29.552 76.9718 30.032C78.4598 30.512 79.9478 30.752 81.4358 30.752C83.0918 30.752 84.3158 30.512 85.1078 30.032C85.8998 29.528 86.2958 28.868 86.2958 28.052C86.2958 27.452 86.0558 26.96 85.5758 26.576C85.1198 26.168 84.5198 25.844 83.7758 25.604C83.0558 25.364 82.0718 25.1 80.8238 24.812C78.9038 24.356 77.3318 23.9 76.1078 23.444C74.8838 22.988 73.8278 22.256 72.9398 21.248C72.0758 20.24 71.6438 18.896 71.6438 17.216C71.6438 15.752 72.0398 14.432 72.8318 13.256C73.6238 12.056 74.8118 11.108 76.3958 10.412C78.0038 9.716 79.9598 9.368 82.2638 9.368C83.8718 9.368 85.4438 9.56 86.9798 9.944C88.5158 10.328 89.8598 10.88 91.0118 11.6L89.2118 16.028C86.8838 14.708 84.5558 14.048 82.2278 14.048C80.5958 14.048 79.3838 14.312 78.5918 14.84C77.8238 15.368 77.4398 16.064 77.4398 16.928C77.4398 17.792 77.8838 18.44 78.7718 18.872C79.6838 19.28 81.0638 19.688 82.9118 20.096C84.8318 20.552 86.4038 21.008 87.6278 21.464C88.8518 21.92 89.8958 22.64 90.7598 23.624C91.6478 24.608 92.0918 25.94 92.0918 27.62C92.0918 29.06 91.6838 30.38 90.8678 31.58C90.0758 32.756 88.8758 33.692 87.2678 34.388C85.6598 35.084 83.7038 35.432 81.3998 35.432ZM117.18 9.8C119.412 9.8 121.344 10.172 122.976 10.916C124.632 11.66 125.904 12.716 126.792 14.084C127.68 15.452 128.124 17.072 128.124 18.944C128.124 20.792 127.68 22.412 126.792 23.804C125.904 25.172 124.632 26.228 122.976 26.972C121.344 27.692 119.412 28.052 117.18 28.052H112.104V35H106.272V9.8H117.18ZM116.856 23.3C118.608 23.3 119.94 22.928 120.852 22.184C121.764 21.416 122.22 20.336 122.22 18.944C122.22 17.528 121.764 16.448 120.852 15.704C119.94 14.936 118.608 14.552 116.856 14.552H112.104V23.3H116.856ZM132.288 9.8H138.12V30.248H150.756V35H132.288V9.8ZM193.581 26.072V35H187.749V26L177.993 9.8H184.185L190.917 20.996L197.649 9.8H203.373L193.581 26.072Z" fill="black"/>
<path d="M179.373 20.1867L157.443 9.22166C157.148 9.0846 156.822 9.0237 156.497 9.04452C156.171 9.06533 155.856 9.16721 155.58 9.34086C155.304 9.51451 155.076 9.75443 154.917 10.0388C154.757 10.3231 154.671 10.6429 154.667 10.9689V32.8894C154.664 33.2241 154.748 33.5538 154.909 33.8467C155.071 34.1396 155.306 34.3858 155.591 34.5615C155.876 34.7372 156.201 34.8364 156.536 34.8496C156.87 34.8627 157.202 34.7894 157.5 34.6367L179.373 23.6717C179.697 23.509 179.97 23.2595 180.16 22.9509C180.35 22.6424 180.451 22.287 180.451 21.9244C180.451 21.5619 180.35 21.2065 180.16 20.898C179.97 20.5894 179.697 20.3399 179.373 20.1772V20.1867Z" fill="#11BF30"/>
</svg>
