<svg width="34" height="34" viewBox="0 0 34 34" fill="none" xmlns="http://www.w3.org/2000/svg">
<path d="M23.7676 20.9141C23.3991 20.0414 22.8645 19.2486 22.1933 18.5801C21.5243 17.9096 20.7317 17.375 19.8594 17.0059C19.8516 17.002 19.8437 17 19.8359 16.9961C21.0527 16.1172 21.8437 14.6855 21.8437 13.0703C21.8437 10.3945 19.6758 8.22656 17 8.22656C14.3242 8.22656 12.1562 10.3945 12.1562 13.0703C12.1562 14.6855 12.9473 16.1172 14.1641 16.998C14.1562 17.002 14.1484 17.0039 14.1406 17.0078C13.2656 17.377 12.4805 17.9063 11.8066 18.582C11.1361 19.2511 10.6016 20.0437 10.2324 20.916C9.86976 21.77 9.67417 22.6856 9.65624 23.6133C9.65572 23.6341 9.65937 23.6549 9.66699 23.6743C9.67461 23.6937 9.68604 23.7114 9.7006 23.7263C9.71516 23.7412 9.73256 23.7531 9.75178 23.7612C9.77099 23.7693 9.79164 23.7734 9.81249 23.7734H10.9844C11.0703 23.7734 11.1387 23.7051 11.1406 23.6211C11.1797 22.1133 11.7851 20.7012 12.8555 19.6309C13.9629 18.5234 15.4336 17.9141 17 17.9141C18.5664 17.9141 20.0371 18.5234 21.1445 19.6309C22.2148 20.7012 22.8203 22.1133 22.8594 23.6211C22.8613 23.707 22.9297 23.7734 23.0156 23.7734H24.1875C24.2083 23.7734 24.229 23.7693 24.2482 23.7612C24.2674 23.7531 24.2848 23.7412 24.2994 23.7263C24.3139 23.7114 24.3254 23.6937 24.333 23.6743C24.3406 23.6549 24.3443 23.6341 24.3437 23.6133C24.3242 22.6797 24.1308 21.7715 23.7676 20.9141V20.9141ZM17 16.4297C16.1035 16.4297 15.2598 16.0801 14.625 15.4453C13.9902 14.8105 13.6406 13.9668 13.6406 13.0703C13.6406 12.1738 13.9902 11.3301 14.625 10.6953C15.2598 10.0605 16.1035 9.71094 17 9.71094C17.8965 9.71094 18.7402 10.0605 19.375 10.6953C20.0098 11.3301 20.3594 12.1738 20.3594 13.0703C20.3594 13.9668 20.0098 14.8105 19.375 15.4453C18.7402 16.0801 17.8965 16.4297 17 16.4297Z" fill="black"/>
</svg>
