<svg width="224" height="54" viewBox="0 0 224 54" fill="none" xmlns="http://www.w3.org/2000/svg">
<path d="M15.1628 14.8H20.9948V35.248H33.6308V40H15.1628V14.8ZM56.4014 35.32V40H36.8894V14.8H55.9334V19.48H42.6854V24.952H54.3854V29.488H42.6854V35.32H56.4014ZM66.2617 19.552H58.1977V14.8H80.1577V19.552H72.0937V40H66.2617V19.552ZM91.3998 40.432C89.4078 40.432 87.4758 40.168 85.6038 39.64C83.7558 39.088 82.2678 38.38 81.1398 37.516L83.1198 33.124C84.1998 33.916 85.4838 34.552 86.9718 35.032C88.4598 35.512 89.9478 35.752 91.4358 35.752C93.0918 35.752 94.3158 35.512 95.1078 35.032C95.8998 34.528 96.2958 33.868 96.2958 33.052C96.2958 32.452 96.0558 31.96 95.5758 31.576C95.1198 31.168 94.5198 30.844 93.7758 30.604C93.0558 30.364 92.0718 30.1 90.8238 29.812C88.9038 29.356 87.3318 28.9 86.1078 28.444C84.8838 27.988 83.8278 27.256 82.9398 26.248C82.0758 25.24 81.6438 23.896 81.6438 22.216C81.6438 20.752 82.0398 19.432 82.8318 18.256C83.6238 17.056 84.8118 16.108 86.3958 15.412C88.0038 14.716 89.9598 14.368 92.2638 14.368C93.8718 14.368 95.4438 14.56 96.9798 14.944C98.5158 15.328 99.8598 15.88 101.012 16.6L99.2118 21.028C96.8838 19.708 94.5558 19.048 92.2278 19.048C90.5958 19.048 89.3838 19.312 88.5918 19.84C87.8238 20.368 87.4398 21.064 87.4398 21.928C87.4398 22.792 87.8838 23.44 88.7718 23.872C89.6838 24.28 91.0638 24.688 92.9118 25.096C94.8318 25.552 96.4038 26.008 97.6278 26.464C98.8518 26.92 99.8958 27.64 100.76 28.624C101.648 29.608 102.092 30.94 102.092 32.62C102.092 34.06 101.684 35.38 100.868 36.58C100.076 37.756 98.8758 38.692 97.2678 39.388C95.6598 40.084 93.7038 40.432 91.3998 40.432ZM127.18 14.8C129.412 14.8 131.344 15.172 132.976 15.916C134.632 16.66 135.904 17.716 136.792 19.084C137.68 20.452 138.124 22.072 138.124 23.944C138.124 25.792 137.68 27.412 136.792 28.804C135.904 30.172 134.632 31.228 132.976 31.972C131.344 32.692 129.412 33.052 127.18 33.052H122.104V40H116.272V14.8H127.18ZM126.856 28.3C128.608 28.3 129.94 27.928 130.852 27.184C131.764 26.416 132.22 25.336 132.22 23.944C132.22 22.528 131.764 21.448 130.852 20.704C129.94 19.936 128.608 19.552 126.856 19.552H122.104V28.3H126.856ZM142.288 14.8H148.12V35.248H160.756V40H142.288V14.8ZM203.581 31.072V40H197.749V31L187.993 14.8H194.185L200.917 25.996L207.649 14.8H213.373L203.581 31.072Z" fill="white"/>
<path d="M189.373 25.1867L167.443 14.2217C167.148 14.0846 166.822 14.0237 166.497 14.0445C166.171 14.0653 165.856 14.1672 165.58 14.3409C165.304 14.5145 165.076 14.7544 164.917 15.0388C164.757 15.3231 164.671 15.6429 164.667 15.9689V37.8894C164.664 38.2241 164.748 38.5538 164.909 38.8467C165.071 39.1396 165.306 39.3858 165.591 39.5615C165.876 39.7372 166.201 39.8364 166.536 39.8496C166.87 39.8627 167.202 39.7894 167.5 39.6367L189.373 28.6717C189.697 28.509 189.97 28.2595 190.16 27.9509C190.35 27.6424 190.451 27.287 190.451 26.9244C190.451 26.5619 190.35 26.2065 190.16 25.898C189.97 25.5894 189.697 25.3399 189.373 25.1772V25.1867Z" fill="#11BF30"/>
</svg>
