<svg width="408" height="88" viewBox="0 0 408 88" fill="none" xmlns="http://www.w3.org/2000/svg">
<path d="M6.24163 19.6H17.9056V60.496H43.1776V70H6.24163V19.6ZM88.7188 60.64V70H49.6948V19.6H87.7828V28.96H61.2868V39.904H84.6868V48.976H61.2868V60.64H88.7188ZM108.439 29.104H92.3114V19.6H136.231V29.104H120.103V70H108.439V29.104ZM158.716 70.864C154.732 70.864 150.868 70.336 147.124 69.28C143.428 68.176 140.452 66.76 138.196 65.032L142.156 56.248C144.316 57.832 146.884 59.104 149.86 60.064C152.836 61.024 155.812 61.504 158.788 61.504C162.1 61.504 164.548 61.024 166.132 60.064C167.716 59.056 168.508 57.736 168.508 56.104C168.508 54.904 168.028 53.92 167.068 53.152C166.156 52.336 164.956 51.688 163.468 51.208C162.028 50.728 160.06 50.2 157.564 49.624C153.724 48.712 150.58 47.8 148.132 46.888C145.684 45.976 143.572 44.512 141.796 42.496C140.068 40.48 139.204 37.792 139.204 34.432C139.204 31.504 139.996 28.864 141.58 26.512C143.164 24.112 145.54 22.216 148.708 20.824C151.924 19.432 155.836 18.736 160.444 18.736C163.66 18.736 166.804 19.12 169.876 19.888C172.948 20.656 175.636 21.76 177.94 23.2L174.34 32.056C169.684 29.416 165.028 28.096 160.372 28.096C157.108 28.096 154.684 28.624 153.1 29.68C151.564 30.736 150.796 32.128 150.796 33.856C150.796 35.584 151.684 36.88 153.46 37.744C155.284 38.56 158.044 39.376 161.74 40.192C165.58 41.104 168.724 42.016 171.172 42.928C173.62 43.84 175.708 45.28 177.436 47.248C179.212 49.216 180.1 51.88 180.1 55.24C180.1 58.12 179.284 60.76 177.652 63.16C176.068 65.512 173.668 67.384 170.452 68.776C167.236 70.168 163.324 70.864 158.716 70.864ZM230.276 19.6C234.74 19.6 238.604 20.344 241.868 21.832C245.18 23.32 247.724 25.432 249.5 28.168C251.276 30.904 252.164 34.144 252.164 37.888C252.164 41.584 251.276 44.824 249.5 47.608C247.724 50.344 245.18 52.456 241.868 53.944C238.604 55.384 234.74 56.104 230.276 56.104H220.124V70H208.46V19.6H230.276ZM229.628 46.6C233.132 46.6 235.796 45.856 237.62 44.368C239.444 42.832 240.356 40.672 240.356 37.888C240.356 35.056 239.444 32.896 237.62 31.408C235.796 29.872 233.132 29.104 229.628 29.104H220.124V46.6H229.628ZM260.492 19.6H272.156V60.496H297.428V70H260.492V19.6ZM380.246 52.144V70H368.582V52L349.07 19.6H361.454L374.918 41.992L388.382 19.6H399.83L380.246 52.144Z" fill="black"/>
<path d="M354.747 40.3733L310.887 18.4433C310.295 18.1692 309.644 18.0474 308.993 18.089C308.343 18.1307 307.713 18.3344 307.161 18.6817C306.609 19.029 306.152 19.5089 305.833 20.0776C305.514 20.6462 305.342 21.2857 305.333 21.9378V65.7789C305.328 66.4482 305.495 67.1077 305.819 67.6935C306.143 68.2793 306.612 68.7717 307.182 69.123C307.752 69.4743 308.402 69.6728 309.071 69.6991C309.74 69.7254 310.404 69.5788 311 69.2733L354.747 47.3433C355.395 47.018 355.94 46.519 356.32 45.9019C356.701 45.2848 356.903 44.574 356.903 43.8489C356.903 43.1238 356.701 42.413 356.32 41.7959C355.94 41.1788 355.395 40.6797 354.747 40.3544V40.3733Z" fill="#11BF30"/>
</svg>
